{"title":"Crimes That Shook Australia - S02E06 - Raechel Betts","uid":15204092,"size":387870320,"categoryP":"video","categoryS":"tv_shows","magnet":"?xt=urn:btih:e7587df1e96c60f774f23fcb87b0223ca8e83e72&amp;dn=Crimes+That+Shook+Australia+-+S02E06+-+Raechel+Betts&amp;tr=udp%3A%2F%2Ftracker.leechers-paradise.org%3A6969&amp;tr=udp%3A%2F%2Fzer0day.ch%3A1337&amp;tr=udp%3A%2F%2Fopen.demonii.com%3A1337&amp;tr=udp%3A%2F%2Ftracker.coppersurfer.tk%3A6969&amp;tr=udp%3A%2F%2Fexodus.desync.com%3A6969","seeders":4,"leechers":0,"uploader":"Bullrout","files":1,"time":1467608910,"description":"Crimes That Shook Australia - S02E06 - Raechel Betts\r\n\r\nThe murder of Raechel Betts in 2009 sent shock waves through Australia, particularly because of the gruesome nature of the crime. John Coombes strangled Raechel Betts in a Port Phillip home and then dismembered her body and threw her limbs into the sea. Prior to the murder of Raechel Betts, John Coombes had a long criminal history, including escapes from jail and two other murders.\r\n\r\nComplete name                            : Crimes That Shook Australia - S02E06 - Raechel Betts.mp4\r\nFormat                                   : MPEG-4\r\nFormat profile                           : Base Media / Version 2\r\nCodec ID                                 : mp42 (mp42/isom/avc1)\r\nFile size                                : 370 MiB\r\nDuration                                 : 46mn 40s\r\nOverall bit rate mode                    : Variable\r\nOverall bit rate                         : 1 108 Kbps\r\n\r\nVideo\r\nID                                       : 2\r\nFormat                                   : AVC\r\nFormat/Info                              : Advanced Video Codec\r\nFormat profile                           :   \r\nFormat settings, CABAC                   : Yes\r\nFormat settings, ReFrames                : 3 frames\r\nCodec ID                                 : avc1\r\nCodec ID/Info                            : Advanced Video Coding\r\nDuration                                 : 46mn 40s\r\nBit rate mode                            : Variable\r\nBit rate                                 : 977 Kbps\r\nMaximum bit rate                         : 1 000 Kbps\r\nWidth                                    : 720 pixels\r\nHeight                                   : 404 pixels\r\nDisplay aspect ratio                     : 16:9\r\nOriginal display aspect ratio            : 16:9\r\nFrame rate mode                          : Constant\r\nFrame rate                               : 25.000 fps\r\nStandard                                 : PAL\r\nColor space                              : YUV\r\nChroma subsampling                       : 4:2:0\r\nBit depth                                : 8 bits\r\nScan type                                : Progressive\r\nBits/(Pixel*Frame)                       : 0.134\r\nStream size                              : 326 MiB (88%)\r\nWriting library                          : x264 core 112\r\nColor range                              : Limited\r\nColor primaries                          : BT.601 PAL\r\nTransfer characteristics                 : BT.470 System B, BT.470 System G\r\nMatrix coefficients                      : BT.601\r\n\r\nAudio\r\nID                                       : 1\r\nFormat                                   : AAC\r\nFormat/Info                              : Advanced Audio Codec\r\nFormat profile                           : LC\r\nCodec ID                                 : 40\r\nDuration                                 : 46mn 40s\r\nBit rate mode                            : Variable\r\nBit rate                                 : 128 Kbps\r\nMaximum bit rate                         : 576 Kbps\r\nChannel(s)                               : 2 channels\r\nChannel positions                        : Front: L R\r\nSampling rate                            : 48.0 KHz\r\nFrame rate                               : 46.875 fps (1024 spf)\r\nCompression mode                         : Lossy\r\nStream size                              : 42.7 MiB (12%)","torrent":{"xt":"urn:btih:e7587df1e96c60f774f23fcb87b0223ca8e83e72","amp;dn":"Crimes+That+Shook+Australia+-+S02E06+-+Raechel+Betts","amp;tr":["udp%3A%2F%2Ftracker.leechers-paradise.org%3A6969","udp%3A%2F%2Fzer0day.ch%3A1337","udp%3A%2F%2Fopen.demonii.com%3A1337","udp%3A%2F%2Ftracker.coppersurfer.tk%3A6969","udp%3A%2F%2Fexodus.desync.com%3A6969"],"infoHash":"e7587df1e96c60f774f23fcb87b0223ca8e83e72","infoHashBuffer":{"type":"Buffer","data":[231,88,125,241,233,108,96,247,116,242,63,203,135,176,34,60,168,232,62,114]},"announce":[],"urlList":[]}}